<svg width="27" height="21" viewBox="0 0 27 21" fill="none" xmlns="http://www.w3.org/2000/svg">
<path d="M7.54413 4.25791L7.54418 4.25795C7.68392 4.39767 7.68395 4.62417 7.54416 4.76386L5.97347 6.33333L7.54409 7.90281L7.54532 7.90403L7.54531 7.90404C7.67931 8.04266 7.67931 8.26251 7.54532 8.40113L7.54413 4.25791ZM7.54413 4.25791C7.40435 4.11832 7.17781 4.11829 7.03806 4.25793M7.54413 4.25791L7.03806 4.25793M3.38287 4.75628L3.38287 4.75628C3.24547 4.61418 3.24938 4.38767 3.3916 4.25043L3.38287 4.75628ZM3.38287 4.75628L3.38303 4.75644M3.38287 4.75628L3.38303 4.75644M3.38303 4.75644L3.39038 4.76385M3.38303 4.75644L3.39038 4.76385M3.88905 8.41607L3.88888 8.41623C3.74672 8.55349 3.52015 8.54958 3.38285 8.40749C3.38285 8.40749 3.38285 8.40749 3.38285 8.40749L3.45466 8.33809L3.88905 8.41607ZM3.88905 8.41607L3.89646 8.40872L3.89647 8.40874L5.46726 6.83915L7.03806 8.40874L7.03805 8.40875M3.88905 8.41607L7.03805 8.40875M7.03805 8.40875L7.03931 8.40996M7.03805 8.40875L7.03931 8.40996M7.03931 8.40996C7.18147 8.54712 7.40801 8.54322 7.54531 8.40115L7.03931 8.40996ZM7.03806 4.25793L5.46726 5.82752M7.03806 4.25793L5.46726 5.82752M5.46726 5.82752L3.89703 4.25849C3.75962 4.11711 3.53358 4.11338 3.39162 4.25041L5.46726 5.82752ZM3.39038 4.76385L3.39037 4.76386L4.96106 6.33333L3.39095 7.90223L3.39038 4.76385Z" fill="#3DC2C2" stroke="#3DC2C2" stroke-width="0.2"/>
<circle cx="5.46574" cy="6.33317" r="4.66667" stroke="#3DC2C2" stroke-width="1.5"/>
<circle cx="21.299" cy="6.33317" r="4.66667" stroke="#3DC2C2" stroke-width="1.5"/>
<path fill-rule="evenodd" clip-rule="evenodd" d="M19.9704 8.10472C19.9891 8.14416 20.0134 8.18177 20.0433 8.21646C20.1815 8.37673 20.3991 8.42795 20.5874 8.36202C20.6338 8.34659 20.6787 8.32405 20.7205 8.29414C20.7484 8.27416 20.7737 8.25183 20.7962 8.22761L23.761 5.6722C23.9702 5.49191 23.9936 5.1762 23.8133 4.96703C23.633 4.75786 23.3173 4.73445 23.1082 4.91473L20.5162 7.1488L19.5647 5.8182C19.4041 5.59358 19.0918 5.54169 18.8672 5.70231C18.6425 5.86293 18.5907 6.17523 18.7513 6.39986L19.9704 8.10472Z" fill="#3DC2C2"/>
<path fill-rule="evenodd" clip-rule="evenodd" d="M12.3824 19.4165V12.4165H14.3824V19.4165H12.3824ZM10.8824 19.4165V14.2499H0.799072C0.384859 14.2499 0.0490723 13.9141 0.0490723 13.4999C0.0490723 13.0857 0.384859 12.7499 0.799072 12.7499H10.8824V11.9165C10.8824 11.3642 11.3302 10.9165 11.8824 10.9165H14.8824C15.4347 10.9165 15.8824 11.3642 15.8824 11.9165V12.7499H25.9657C26.38 12.7499 26.7157 13.0857 26.7157 13.4999C26.7157 13.9141 26.38 14.2499 25.9657 14.2499H15.8824V19.4165H19.299C19.7132 19.4165 20.049 19.7523 20.049 20.1665C20.049 20.5807 19.7132 20.9165 19.299 20.9165H15.8824H14.3824H12.3824H10.8824H7.4657C7.05148 20.9165 6.7157 20.5807 6.7157 20.1665C6.7157 19.7523 7.05148 19.4165 7.4657 19.4165H10.8824Z" fill="#3DC2C2"/>
</svg>
