<svg width="27" height="20" viewBox="0 0 27 20" fill="none" xmlns="http://www.w3.org/2000/svg">
<path d="M7.49518 3.34141L7.49523 3.34145C7.63497 3.48117 7.635 3.70767 7.49521 3.84735L5.92452 5.41683L7.49514 6.98631L7.49637 6.98753L7.49636 6.98754C7.63036 7.12615 7.63036 7.34601 7.49637 7.48463L7.49518 3.34141ZM7.49518 3.34141C7.3554 3.20182 7.12886 3.20178 6.98911 3.34143M7.49518 3.34141L6.98911 3.34143M3.33392 3.83977L3.33392 3.83977C3.19652 3.69768 3.20043 3.47117 3.34265 3.33393L3.33392 3.83977ZM3.33392 3.83977L3.33408 3.83993M3.33392 3.83977L3.33408 3.83993M3.33408 3.83993L3.34143 3.84734M3.33408 3.83993L3.34143 3.84734M3.8401 7.49957L3.83993 7.49973C3.69777 7.63698 3.4712 7.63307 3.3339 7.49098C3.3339 7.49098 3.3339 7.49098 3.3339 7.49098L3.40571 7.42159L3.8401 7.49957ZM3.8401 7.49957L3.84751 7.49222L3.84752 7.49223L5.41831 5.92265L6.98911 7.49223L6.9891 7.49224M3.8401 7.49957L6.9891 7.49224M6.9891 7.49224L6.99036 7.49346M6.9891 7.49224L6.99036 7.49346M6.99036 7.49346C7.13251 7.63062 7.35906 7.62671 7.49636 7.48464L6.99036 7.49346ZM6.98911 3.34143L5.41831 4.91101M6.98911 3.34143L5.41831 4.91101M5.41831 4.91101L3.84808 3.34199C3.71067 3.2006 3.48463 3.19688 3.34267 3.33391L5.41831 4.91101ZM3.34143 3.84734L3.34142 3.84735L4.91211 5.41683L3.342 6.98573L3.34143 3.84734Z" fill="white" stroke="white" stroke-width="0.2"/>
<circle cx="5.41667" cy="5.41667" r="4.66667" stroke="white" stroke-width="1.5"/>
<circle cx="21.25" cy="5.41667" r="4.66667" stroke="white" stroke-width="1.5"/>
<path fill-rule="evenodd" clip-rule="evenodd" d="M19.9214 7.18822C19.9402 7.22766 19.9645 7.26527 19.9944 7.29995C20.1325 7.46023 20.3502 7.51144 20.5385 7.44551C20.5848 7.43008 20.6297 7.40755 20.6715 7.37764C20.6995 7.35766 20.7247 7.33533 20.7473 7.31111L23.7121 4.7557C23.9212 4.57541 23.9447 4.25969 23.7644 4.05053C23.5841 3.84136 23.2684 3.81794 23.0592 3.99823L20.4672 6.2323L19.5158 4.9017C19.3551 4.67708 19.0428 4.62519 18.8182 4.78581C18.5936 4.94643 18.5417 5.25873 18.7023 5.48335L19.9214 7.18822Z" fill="white"/>
<path fill-rule="evenodd" clip-rule="evenodd" d="M12.3334 18.5V11.5H14.3334V18.5H12.3334ZM10.8334 18.5V13.3334H0.75C0.335786 13.3334 0 12.9976 0 12.5834C0 12.1692 0.335786 11.8334 0.75 11.8334H10.8334V11C10.8334 10.4477 11.2811 10 11.8334 10H14.8334C15.3857 10 15.8334 10.4477 15.8334 11V11.8334H25.9167C26.3309 11.8334 26.6667 12.1692 26.6667 12.5834C26.6667 12.9976 26.3309 13.3334 25.9167 13.3334H15.8334V18.5H19.25C19.6642 18.5 20 18.8358 20 19.25C20 19.6642 19.6642 20 19.25 20H15.8334H14.3334H12.3334H10.8334H7.41663C7.00241 20 6.66663 19.6642 6.66663 19.25C6.66663 18.8358 7.00241 18.5 7.41663 18.5H10.8334Z" fill="white"/>
</svg>
