<svg width="26" height="24" viewBox="0 0 26 24" fill="none" xmlns="http://www.w3.org/2000/svg">
<path fill-rule="evenodd" clip-rule="evenodd" d="M8.22557 5.05263C7.81567 5.67112 7.11336 6.07895 6.31579 6.07895C5.51822 6.07895 4.81591 5.67112 4.40601 5.05263H8.22557ZM8.48411 3.05263H4.14747C4.45422 2.14969 5.30913 1.5 6.31579 1.5C7.32245 1.5 8.17736 2.14969 8.48411 3.05263ZM10.0337 3.05263C9.69074 1.31246 8.15654 0 6.31579 0C4.47504 0 2.94084 1.31246 2.59791 3.05263H1C0.447715 3.05263 0 3.50035 0 4.05263C0 4.60492 0.447715 5.05263 1 5.05263H2.74194C3.26216 6.52445 4.66583 7.57895 6.31579 7.57895C7.96575 7.57895 9.36942 6.52445 9.88964 5.05263H24.2632C24.8154 5.05263 25.2632 4.60492 25.2632 4.05263C25.2632 3.50035 24.8154 3.05263 24.2632 3.05263H10.0337Z" fill="white" fill-opacity="0.75"/>
<path fill-rule="evenodd" clip-rule="evenodd" d="M20.8571 12.6315C20.4472 13.25 19.7449 13.6578 18.9474 13.6578C18.1498 13.6578 17.4475 13.25 17.0376 12.6315H20.8571ZM21.1157 10.6315H16.779C17.0858 9.72854 17.9407 9.07886 18.9474 9.07886C19.954 9.07886 20.8089 9.72854 21.1157 10.6315ZM22.6652 10.6315C22.3223 8.89131 20.7881 7.57886 18.9474 7.57886C17.1066 7.57886 15.5724 8.89131 15.2295 10.6315H1C0.447715 10.6315 0 11.0792 0 11.6315C0 12.1838 0.447715 12.6315 1 12.6315H15.3735C15.8937 14.1033 17.2974 15.1578 18.9474 15.1578C20.5973 15.1578 22.001 14.1033 22.5212 12.6315H24.2632C24.8154 12.6315 25.2632 12.1838 25.2632 11.6315C25.2632 11.0792 24.8154 10.6315 24.2632 10.6315H22.6652Z" fill="white" fill-opacity="0.75"/>
<path fill-rule="evenodd" clip-rule="evenodd" d="M14.5414 21.4738C14.1315 22.0923 13.4291 22.5001 12.6316 22.5001C11.834 22.5001 11.1317 22.0923 10.7218 21.4738H14.5414ZM14.7999 19.4738H10.4633C10.77 18.5708 11.6249 17.9211 12.6316 17.9211C13.6382 17.9211 14.4932 18.5708 14.7999 19.4738ZM16.3495 19.4738C16.0065 17.7336 14.4723 16.4211 12.6316 16.4211C10.7908 16.4211 9.25663 17.7336 8.9137 19.4738H1C0.447715 19.4738 0 19.9215 0 20.4738C0 21.0261 0.447715 21.4738 1 21.4738H9.05773C9.57795 22.9456 10.9816 24.0001 12.6316 24.0001C14.2815 24.0001 15.6852 22.9456 16.2054 21.4738H24.2632C24.8154 21.4738 25.2632 21.0261 25.2632 20.4738C25.2632 19.9215 24.8154 19.4738 24.2632 19.4738H16.3495Z" fill="white" fill-opacity="0.75"/>
</svg>
