<svg width="26" height="28" viewBox="0 0 26 28" fill="none" xmlns="http://www.w3.org/2000/svg">
<path d="M21.9037 9.24055C21.9086 5.44264 19.1878 2.12756 15.2954 1.17059C11.4038 0.213803 7.31362 1.853 5.3481 5.16519C3.38157 8.47886 4.0424 12.6249 6.95129 15.2484C7.87282 16.1111 8.38185 17.2877 8.36364 18.5086V18.5101V19.1054C7.46545 19.147 6.7045 19.7723 6.55126 20.6254C6.39958 21.47 6.88777 22.2894 7.70601 22.6155C7.37149 23.1608 7.35542 23.8344 7.67214 24.3964L7.67216 24.3965C8.01007 24.9955 8.66929 25.3669 9.38358 25.3674H9.38364H9.8107C10.0723 26.3831 11.0364 27.0985 12.1435 27.1H12.1436H13.9837H13.9838C15.0908 27.0985 16.0552 26.3832 16.3166 25.3674H16.7437H16.7437C17.458 25.3669 18.117 24.9952 18.4549 24.3963L18.4549 24.3962C18.7716 23.8342 18.7556 23.1606 18.4209 22.6155C19.2391 22.2894 19.7273 21.4702 19.5758 20.6257L19.5758 20.6257C19.4226 19.7725 18.6618 19.1472 17.7637 19.1054V18.5101V18.51C17.7617 17.2691 18.289 16.0784 19.2293 15.205C20.9449 13.6439 21.9116 11.4899 21.9037 9.24055ZM21.9037 9.24055C21.9037 9.24063 21.9037 9.24072 21.9037 9.2408L21.8037 9.24066L21.9037 9.24031C21.9037 9.24039 21.9037 9.24047 21.9037 9.24055ZM7.65504 14.5502L7.72316 14.477C8.86551 15.54 9.50156 16.9958 9.48364 18.5107V19.1032H16.6437L16.6437 18.5104M7.65504 14.5502L16.6437 18.5104M7.65504 14.5502L7.72192 14.4758C6.04616 12.9682 5.1824 10.8316 5.36816 8.65949C5.69014 5.21663 8.52556 2.44702 12.1797 2.02315C15.4631 1.66649 18.6197 3.31706 20.0345 6.12185L20.1238 6.07682L20.0345 6.12186C21.4488 8.92523 20.813 12.2661 18.4489 14.4335L18.4485 14.434C17.2916 15.5085 16.6403 16.9771 16.6437 18.5101M7.65504 14.5502L16.6437 18.5101M16.6437 18.5104L16.6437 18.5101M16.6437 18.5104C16.6437 18.5103 16.6437 18.5102 16.6437 18.5101M13.9833 26.0337H12.144C11.6532 26.0317 11.2151 25.7682 11.0028 25.3674H15.1245C14.9125 25.7682 14.4743 26.0317 13.9833 26.0337ZM16.7437 24.3011H9.38364C8.92505 24.3011 8.56364 23.9524 8.56364 23.5348C8.56364 23.117 8.92503 22.7685 9.38364 22.7685H16.7437C17.2023 22.7685 17.5637 23.117 17.5637 23.5348C17.5637 23.9524 17.2022 24.3011 16.7437 24.3011ZM17.6637 21.7021H8.46364C8.00505 21.7021 7.64364 21.3534 7.64364 20.9358C7.64364 20.518 8.00503 20.1695 8.46364 20.1695H17.6637C18.1223 20.1695 18.4837 20.518 18.4837 20.9358C18.4837 21.3534 18.1222 21.7021 17.6637 21.7021Z" fill="white" stroke="white" stroke-width="0.2"/>
<path d="M11.1775 13.3326L11.4167 12.8817L11.7099 13.7091C11.7721 13.885 11.9466 14.0043 12.1436 14.0054H13.9836C14.1815 14.0052 14.3571 13.8859 14.4198 13.7091L14.7127 12.8817L14.9519 13.3326C15.0298 13.4794 15.1893 13.5722 15.3636 13.5722H16.9999C17.3013 13.572 17.5836 13.4329 17.7557 13.1996C17.9275 12.9663 17.967 12.6685 17.8615 12.4026L16.9383 10.0852C16.7577 9.63599 16.3294 9.31641 15.8236 9.25359V6.72171C15.8256 6.28813 15.6875 5.86428 15.4276 5.50642C14.0494 3.60968 13.3075 3.60968 13.0636 3.60968C12.8199 3.60968 12.0778 3.60968 10.7002 5.506C10.4401 5.86386 10.3018 6.28792 10.3036 6.72171V9.25359C9.7982 9.3162 9.37009 9.63514 9.18905 10.0839L8.26591 12.4026C8.16034 12.6685 8.19987 12.9663 8.3717 13.1996C8.54353 13.4329 8.82586 13.572 9.12751 13.5722H10.7636C10.9388 13.5731 11.0994 13.4802 11.1775 13.3326V13.3326ZM12.4753 13.1391L12.3217 12.7059H13.8057L13.6521 13.1391H12.4753ZM16.0767 10.3881L16.9999 12.7059H15.6479L15.608 12.6304C15.7405 12.5541 15.8218 12.4189 15.8236 12.2728V10.1455C15.9397 10.1901 16.0313 10.2779 16.0767 10.3881ZM11.2236 6.72171C11.2222 6.46283 11.3042 6.20945 11.4592 5.99541C12.3322 4.79345 12.8906 4.47599 13.0636 4.47599C13.2365 4.47599 13.7951 4.79345 14.6686 5.99584C14.8232 6.20988 14.9052 6.46304 14.9036 6.72171V11.8396H13.5236V9.24069H12.6036V11.8396H11.2236V6.72171ZM9.12751 12.7059L10.0507 10.3877C10.0963 10.2777 10.1877 10.1901 10.3036 10.1455V12.2728C10.3054 12.4189 10.3869 12.5541 10.5194 12.6304L10.4794 12.7059H9.12751Z" fill="white"/>
<path d="M13.0636 7.94121C13.8259 7.94121 14.4436 7.35937 14.4436 6.64175C14.4436 5.92391 13.8259 5.34229 13.0636 5.34229C12.3015 5.34229 11.6836 5.92391 11.6836 6.64175C11.6836 7.35937 12.3015 7.94121 13.0636 7.94121ZM13.0636 6.20859C13.3176 6.20859 13.5236 6.40254 13.5236 6.64175C13.5236 6.88096 13.3176 7.0749 13.0636 7.0749C12.8095 7.0749 12.6036 6.88096 12.6036 6.64175C12.6036 6.40254 12.8095 6.20859 13.0636 6.20859Z" fill="white"/>
<path d="M13.5986 17.8769V16.198C13.5986 15.9025 13.359 15.663 13.0636 15.663C12.7681 15.663 12.5286 15.9025 12.5286 16.198V17.8769C12.5286 18.1724 12.7681 18.4119 13.0636 18.4119C13.359 18.4119 13.5986 18.1724 13.5986 17.8769Z" fill="white" stroke="white" stroke-width="0.15"/>
<path d="M15.4387 17.0107V15.3318C15.4387 15.0363 15.1992 14.7968 14.9037 14.7968C14.6082 14.7968 14.3687 15.0363 14.3687 15.3318V17.0107C14.3687 17.3062 14.6082 17.5457 14.9037 17.5457C15.1992 17.5457 15.4387 17.3062 15.4387 17.0107Z" fill="white" stroke="white" stroke-width="0.15"/>
<path d="M11.7586 17.0107V15.3318C11.7586 15.0363 11.519 14.7968 11.2236 14.7968C10.9281 14.7968 10.6886 15.0363 10.6886 15.3318V17.0107C10.6886 17.3062 10.9281 17.5457 11.2236 17.5457C11.519 17.5457 11.7586 17.3062 11.7586 17.0107Z" fill="white" stroke="white" stroke-width="0.15"/>
<line x1="23.6111" y1="10.021" x2="25.5" y2="10.021" stroke="white" stroke-linecap="round"/>
<line x1="0.5" y1="-0.5" x2="2.3292" y2="-0.5" transform="matrix(0.81632 -0.5776 0.623738 0.781634 23.1111 5.35443)" stroke="white" stroke-linecap="round"/>
<line x1="0.5" y1="-0.5" x2="2.33608" y2="-0.5" transform="matrix(0.840153 0.542349 -0.588574 0.808444 21.6666 15.9615)" stroke="white" stroke-linecap="round"/>
<line x1="2.38889" y1="9.66083" x2="0.5" y2="9.66083" stroke="white" stroke-linecap="round"/>
<line x1="0.5" y1="-0.5" x2="2.32691" y2="-0.5" transform="matrix(-0.808169 0.588951 -0.634948 -0.772555 3.72913 14.6014)" stroke="white" stroke-linecap="round"/>
<line x1="0.5" y1="-0.5" x2="2.33827" y2="-0.5" transform="matrix(-0.847603 -0.530631 0.576772 -0.816905 3.85029 3.86621)" stroke="white" stroke-linecap="round"/>
</svg>
