<svg width="21" height="24" viewBox="0 0 21 24" fill="none" xmlns="http://www.w3.org/2000/svg">
<path d="M13.7364 15.7326V15.7328V16.2224C14.434 16.2681 15.0133 16.8051 15.1303 17.5217L15.1303 17.5217C15.2459 18.2309 14.8782 18.9269 14.2465 19.2125C14.5002 19.6751 14.5103 20.2427 14.2671 20.7174L14.2671 20.7174C14.0051 21.2283 13.491 21.5501 12.9288 21.5504L12.9288 21.5504L12.6199 21.5504C12.4134 22.4055 11.6693 23.0152 10.8058 23.0165H10.8057H9.39028H9.39014C8.5266 23.0152 7.7827 22.4054 7.5761 21.5504H7.2672H7.26713C6.70501 21.5501 6.19072 21.2285 5.9287 20.7176L5.92868 20.7176C5.6855 20.2429 5.69562 19.6753 5.9492 19.2125C5.31742 18.9269 4.94967 18.2307 5.06547 17.5215C5.18247 16.8049 5.76191 16.268 6.45951 16.2224V15.7328V15.7314H6.45952C6.4735 14.6997 6.08237 13.7072 5.37714 12.9809C3.13423 10.7556 2.62681 7.24336 4.14108 4.43659M13.7364 15.7326L4.22909 4.48407M13.7364 15.7326C13.7349 14.684 14.1401 13.6796 14.8598 12.9442M13.7364 15.7326L14.7887 12.8738M4.14108 4.43659L4.22909 4.48407M4.14108 4.43659C4.14108 4.43659 4.14108 4.43659 4.14108 4.43659L4.22909 4.48407M4.14108 4.43659C5.65599 1.62848 8.81346 0.232722 11.8225 1.04649C14.8307 1.86004 16.9248 4.6747 16.9211 7.88927C16.9271 9.79386 16.1832 11.6195 14.8598 12.9442M4.22909 4.48407C5.72275 1.71534 8.83377 0.341806 11.7964 1.14302C14.759 1.94424 16.8249 4.7178 16.8211 7.88937C16.8271 9.76812 16.0932 11.5683 14.7887 12.8738M14.8598 12.9442C14.8599 12.9441 14.86 12.9439 14.8602 12.9438L14.7887 12.8738M14.8598 12.9442C14.8597 12.9443 14.8596 12.9444 14.8594 12.9445L14.7887 12.8738M5.93751 12.382L6.00904 12.3122C6.89134 13.2153 7.38099 14.4502 7.3672 15.7333V16.2192H12.8288V15.733V15.7328H12.9288L5.93751 12.382ZM5.93751 12.382L6.00785 12.311C4.72289 11.0393 4.05864 9.23484 4.20143 7.39818C4.44899 4.48641 6.62704 2.15405 9.42173 1.79741L5.93751 12.382ZM10.8052 22.0835H9.39072C9.39059 22.0835 9.39045 22.0835 9.39031 22.0835C9.0332 22.0817 8.70867 21.8746 8.54429 21.5504H11.6517C11.4875 21.8745 11.1629 22.0817 10.8056 22.0835C10.8055 22.0835 10.8054 22.0835 10.8052 22.0835ZM12.9288 20.6174H7.2672C6.9349 20.6174 6.65951 20.3373 6.65951 19.9844C6.65951 19.6313 6.93488 19.3514 7.2672 19.3514H12.9288C13.2611 19.3514 13.5364 19.6313 13.5364 19.9844C13.5364 20.3373 13.2611 20.6174 12.9288 20.6174ZM13.6364 18.4183H6.55951C6.2272 18.4183 5.95181 18.1382 5.95181 17.7853C5.95181 17.4322 6.22719 17.1523 6.55951 17.1523H13.6364C13.9688 17.1523 14.2441 17.4322 14.2441 17.7853C14.2441 18.1382 13.9688 18.4183 13.6364 18.4183Z" fill="white" stroke="white" stroke-width="0.2"/>
<path d="M8.64705 11.3516L8.83106 10.9701L9.05653 11.6702C9.10439 11.8191 9.23864 11.92 9.39017 11.9209H10.8056C10.9578 11.9207 11.0929 11.8198 11.1411 11.6702L11.3664 10.9701L11.5504 11.3516C11.6103 11.4758 11.733 11.5544 11.8671 11.5544H13.1258C13.3576 11.5542 13.5748 11.4364 13.7072 11.239C13.8393 11.0416 13.8698 10.7897 13.7885 10.5647L13.0784 8.60381C12.9395 8.22369 12.61 7.95328 12.2209 7.90013V5.75777C12.2225 5.39089 12.1162 5.03225 11.9163 4.72945C10.8562 3.12451 10.2855 3.12451 10.0979 3.12451C9.9104 3.12451 9.33954 3.12451 8.2799 4.72909C8.07983 5.0319 7.9734 5.39072 7.97478 5.75777V7.90013C7.58603 7.9531 7.25672 8.22298 7.11746 8.60274L6.40735 10.5647C6.32614 10.7897 6.35655 11.0416 6.48872 11.239C6.6209 11.4364 6.83808 11.5542 7.07012 11.5544H8.32862C8.46339 11.5551 8.58693 11.4765 8.64705 11.3516V11.3516ZM9.64536 11.1879L9.52718 10.8213H10.6687L10.5505 11.1879H9.64536ZM12.4157 8.86008L13.1258 10.8213H12.0858L12.0551 10.7574C12.157 10.6928 12.2196 10.5785 12.2209 10.4548V8.65481C12.3103 8.69258 12.3808 8.76684 12.4157 8.86008ZM8.68247 5.75777C8.68143 5.53872 8.7445 5.32432 8.86371 5.14321C9.5353 4.12617 9.96482 3.85754 10.0979 3.85754C10.2309 3.85754 10.6606 4.12617 11.3325 5.14357C11.4514 5.32468 11.5145 5.5389 11.5132 5.75777V10.0883H10.4517V7.88921H9.74401V10.0883H8.68247V5.75777ZM7.07012 10.8213L7.78023 8.85973C7.8153 8.76667 7.88562 8.69258 7.97478 8.65481V10.4548C7.97616 10.5785 8.03888 10.6928 8.14082 10.7574L8.11006 10.8213H7.07012Z" fill="white"/>
<path d="M10.0979 6.78991C10.6843 6.78991 11.1595 6.29759 11.1595 5.69037C11.1595 5.08297 10.6843 4.59082 10.0979 4.59082C9.51169 4.59082 9.03638 5.08297 9.03638 5.69037C9.03638 6.29759 9.51169 6.78991 10.0979 6.78991ZM10.0979 5.32385C10.2933 5.32385 10.4518 5.48796 10.4518 5.69037C10.4518 5.89277 10.2933 6.05688 10.0979 6.05688C9.90251 6.05688 9.74407 5.89277 9.74407 5.69037C9.74407 5.48796 9.90251 5.32385 10.0979 5.32385Z" fill="white"/>
<path d="M10.5268 15.2325V13.7411C10.5268 13.5042 10.3348 13.3122 10.098 13.3122C9.86114 13.3122 9.66914 13.5042 9.66914 13.7411V15.2325C9.66914 15.4693 9.86114 15.6613 10.098 15.6613C10.3348 15.6613 10.5268 15.4693 10.5268 15.2325Z" fill="white" stroke="white" stroke-width="0.15"/>
<path d="M11.9424 14.4995V13.0081C11.9424 12.7713 11.7504 12.5793 11.5135 12.5793C11.2767 12.5793 11.0847 12.7713 11.0847 13.0081V14.4995C11.0847 14.7364 11.2767 14.9284 11.5135 14.9284C11.7504 14.9284 11.9424 14.7364 11.9424 14.4995Z" fill="white" stroke="white" stroke-width="0.15"/>
<path d="M9.11131 14.4995V13.0081C9.11131 12.7713 8.91931 12.5793 8.68246 12.5793C8.44561 12.5793 8.25361 12.7713 8.25361 13.0081V14.4995C8.25361 14.7364 8.44561 14.9284 8.68246 14.9284C8.91931 14.9284 9.11131 14.7364 9.11131 14.4995Z" fill="white" stroke="white" stroke-width="0.15"/>
<line x1="18.3269" y1="8.47266" x2="19.5491" y2="8.47266" stroke="white" stroke-linecap="round"/>
<line x1="0.5" y1="-0.5" x2="1.75126" y2="-0.5" transform="matrix(0.789144 -0.614208 0.587205 0.809438 17.8269 4.60107)" stroke="white" stroke-linecap="round"/>
<line x1="0.5" y1="-0.5" x2="1.74797" y2="-0.5" transform="matrix(0.815349 0.57897 -0.551916 0.8339 16.7158 13.5762)" stroke="white" stroke-linecap="round"/>
<line x1="1.77124" y1="8.32178" x2="0.549018" y2="8.32178" stroke="white" stroke-linecap="round"/>
<line x1="0.5" y1="-0.5" x2="1.75235" y2="-0.5" transform="matrix(-0.780251 0.625466 -0.598545 -0.801089 2.91748 12.4253)" stroke="white" stroke-linecap="round"/>
<line x1="0.5" y1="-0.5" x2="1.74691" y2="-0.5" transform="matrix(-0.823603 -0.567167 0.540163 -0.841561 3.01074 3.3418)" stroke="white" stroke-linecap="round"/>
</svg>
