<svg width="22" height="27" viewBox="0 0 22 27" fill="none" xmlns="http://www.w3.org/2000/svg">
<path d="M18.7738 17.5432V11.1812C18.7738 7.65505 16.3979 4.67341 13.1628 3.75314V2.49037C13.1628 1.11717 12.0456 0 10.6724 0C9.29925 0 8.18207 1.11717 8.18207 2.49037V3.7532C4.94704 4.67341 2.571 7.65505 2.571 11.1812V17.5432C1.12682 17.7041 0 18.9317 0 20.418V20.6466C0 22.242 1.29789 23.5398 2.89321 23.5398H7.48577V23.8133C7.48577 25.5704 8.91534 27 10.6725 27C12.4297 27 13.8592 25.5704 13.8592 23.8133V23.5398H18.4517C20.0471 23.5398 21.345 22.242 21.345 20.6466V20.418C21.3448 18.9317 20.218 17.704 18.7738 17.5432ZM9.82047 2.49037C9.82047 2.02056 10.2027 1.63835 10.6725 1.63835C11.1423 1.63835 11.5245 2.02056 11.5245 2.49037V3.47497C11.3684 3.46553 11.2112 3.4601 11.0528 3.4601H10.2921C10.1337 3.4601 9.97651 3.46548 9.82047 3.47492V2.49037ZM4.20935 11.1812C4.20935 7.82712 6.93802 5.09844 10.2921 5.09844H11.0528C14.4068 5.09844 17.1355 7.82712 17.1355 11.1812V17.5248H4.20935V11.1812ZM10.6724 25.3616C9.81868 25.3616 9.12407 24.667 9.12407 23.8132V23.5398H12.2208V23.8132H12.2208C12.2208 24.667 11.5262 25.3616 10.6724 25.3616ZM19.7066 20.6465H19.7065C19.7065 21.3385 19.1436 21.9014 18.4516 21.9014H2.89321C2.20128 21.9014 1.63834 21.3385 1.63834 20.6465V20.4179C1.63834 19.726 2.20128 19.1631 2.89321 19.1631H3.39023H17.9547H18.4517C19.1436 19.1631 19.7066 19.726 19.7066 20.4179V20.6465Z" fill="black"/>
</svg>
