<svg width="18" height="18" viewBox="0 0 18 18" fill="none" xmlns="http://www.w3.org/2000/svg">
<path d="M16.9334 4.90466L16.9334 4.90467C17.0727 5.04403 17.1301 5.24563 17.0847 5.43747C17.0847 5.43748 17.0847 5.43749 17.0847 5.4375L16.9874 5.4145C16.9501 5.57259 16.8336 5.70012 16.6794 5.7515L16.9334 4.90466ZM16.9334 4.90466L13.0954 1.06661L16.9334 4.90466ZM7.01524 6.48727L11.3938 3.5682L12.1536 1.28891C12.216 1.10191 12.3707 0.960508 12.5625 0.915234M7.01524 6.48727L13.0954 1.0666C12.956 0.927184 12.7543 0.869932 12.5625 0.915234M7.01524 6.48727C6.55445 6.03578 5.94604 5.78725 5.29995 5.78725C4.6453 5.78725 4.02934 6.04241 3.56646 6.50532L3.25487 6.81691C3.03275 7.03903 3.03275 7.39913 3.25487 7.62124L6.41466 10.781L1.06659 16.1291C0.844471 16.3512 0.844471 16.7113 1.06659 16.9334M7.01524 6.48727L14.3992 6.61699L14.4318 6.60614L11.5127 10.9847M12.5625 0.915234L12.5855 1.01256L12.5625 0.915239C12.5625 0.915237 12.5625 0.915235 12.5625 0.915234ZM1.06659 16.9334C1.06658 16.9334 1.06658 16.9334 1.06657 16.9334L1.1373 16.8627L1.06659 16.9334ZM1.06659 16.9334C1.1776 17.0445 1.32335 17.1 1.46873 17.1C1.61412 17.1 1.75986 17.0445 1.87088 16.9334L1.80017 16.8627M1.80017 16.8627L1.87091 16.9334L7.21898 11.5853M1.80017 16.8627L7.14827 11.5146L7.21898 11.5853M1.80017 16.8627L7.28969 11.5146M7.21898 11.5853L10.3788 14.7451C10.4898 14.8561 10.6355 14.9117 10.7809 14.9117C10.9263 14.9117 11.072 14.8562 11.1831 14.7451L11.1124 14.6744M7.21898 11.5853L7.28969 11.5146M11.1124 14.6744L11.1831 14.7451L11.4947 14.4335L11.424 14.3628M11.1124 14.6744C11.0209 14.7659 10.9009 14.8117 10.7809 14.8117C10.661 14.8117 10.541 14.7659 10.4495 14.6744L7.28969 11.5146M11.1124 14.6744L11.424 14.3628M11.424 14.3628L11.4947 14.4335C11.9576 13.9706 12.2127 13.3546 12.2127 12.7C12.2127 12.0539 11.9642 11.4455 11.5127 10.9847M11.424 14.3628C11.8681 13.9187 12.1127 13.3281 12.1127 12.7C12.1127 12.0719 11.8681 11.4813 11.424 11.0372L7.28969 11.5146M11.5127 10.9847L11.4673 11.0528L11.4319 11.0292L11.3841 10.9973L11.4548 10.9266L11.4947 10.9665C11.5007 10.9725 11.5067 10.9786 11.5127 10.9847ZM10.6904 11.7708L10.7611 11.7001L10.6904 11.7708C10.9387 12.0191 11.0752 12.3488 11.0752 12.7C11.0752 13.0082 10.9701 13.2997 10.7766 13.5343L4.46569 7.22334C4.70025 7.02986 4.99181 6.92472 5.29995 6.92472C5.65115 6.92472 5.98081 7.06127 6.22915 7.30958C6.22915 7.30959 6.22915 7.30959 6.22915 7.30959L10.6904 11.7708ZM13.335 6.20077L10.6926 10.1644L7.83564 7.30745L11.7992 4.66502L13.335 6.20077ZM12.9418 2.52165L15.4784 5.05826L14.2205 5.47755L12.5225 3.77955L12.9418 2.52165Z" fill="black" stroke="black" stroke-width="0.2"/>
</svg>
