<svg width="26" height="24" viewBox="0 0 26 24" fill="none" xmlns="http://www.w3.org/2000/svg">
<path d="M23.549 10.316H19.6731V2.93775C19.6731 1.81031 18.7505 0.893066 17.6164 0.893066H2.05672C0.922645 0.893066 0 1.81031 0 2.93775V14.2184C0 15.3458 0.922645 16.2631 2.05672 16.2631H3.56875L4.66618 20.6263C4.73506 20.9012 4.95377 21.1137 5.23159 21.1762C5.28703 21.1886 5.34267 21.1947 5.39812 21.1947C5.62048 21.1945 5.83498 21.0967 5.98002 20.9218L9.84615 16.2631H11.8703V19.2132C11.8703 20.0892 12.587 20.802 13.4684 20.802H18.5542L20.9793 23.7243C21.1245 23.8992 21.339 23.997 21.5614 23.997C21.6166 23.997 21.6725 23.9909 21.7277 23.9785C22.0055 23.9161 22.2243 23.7035 22.2933 23.4288L22.9539 20.802H23.549C24.4302 20.802 25.1472 20.0892 25.1472 19.2132V11.9048C25.1472 11.0285 24.4302 10.316 23.549 10.316ZM9.49045 14.763C9.26521 14.763 9.05186 14.8629 8.90854 15.0357L5.76744 18.8207L4.88989 15.3312C4.80604 14.9972 4.50425 14.763 4.15795 14.763H2.05672C1.75473 14.763 1.50916 14.5186 1.50916 14.2184V2.93775C1.50916 2.63753 1.75473 2.3932 2.05672 2.3932H17.6164C17.9184 2.3932 18.164 2.63753 18.164 2.93775V14.2184C18.164 14.5186 17.9184 14.763 17.6164 14.763H9.49045ZM23.6381 19.2132C23.6381 19.262 23.5982 19.3017 23.549 19.3017H22.3649C22.0186 19.3017 21.7168 19.5361 21.633 19.8699L21.1919 21.6229L19.492 19.5744C19.3487 19.4018 19.1352 19.3017 18.9101 19.3017H13.4684C13.4193 19.3017 13.3792 19.262 13.3792 19.2132V16.2631H17.6164C18.7505 16.2631 19.6729 15.3458 19.6729 14.2184V11.8161H23.549C23.5982 11.8161 23.6381 11.8558 23.6381 11.9048V19.2132Z" fill="#3DC2C2"/>
<path d="M12.2496 12.8353C12.1295 12.8353 12.009 12.8069 11.8985 12.7491L9.83661 11.6715L7.77452 12.7491C7.52031 12.8821 7.21238 12.8599 6.97984 12.6919C6.7475 12.5243 6.63124 12.2397 6.67978 11.9583L7.07366 9.67562L5.40527 8.05914C5.19979 7.85982 5.12573 7.5617 5.21437 7.2901C5.3032 7.01868 5.53937 6.8207 5.82352 6.77969L8.12888 6.44667L9.15993 4.36975C9.28713 4.11379 9.5494 3.95166 9.83661 3.95166C10.1238 3.95166 10.3861 4.11379 10.5131 4.36975L11.5441 6.44667L13.8495 6.77969C14.1338 6.8207 14.37 7.01868 14.4587 7.2901C14.5475 7.5617 14.4734 7.85982 14.2678 8.05914L12.5996 9.67562L12.9933 11.9583C13.0418 12.2397 12.9255 12.5243 12.6932 12.6919C12.5618 12.7871 12.4062 12.8353 12.2496 12.8353ZM7.5535 8.04579L8.41091 8.87682C8.58877 9.04906 8.66992 9.29739 8.62791 9.54077L8.4255 10.714L9.48551 10.1601C9.70519 10.0451 9.96784 10.0451 10.1877 10.1601L11.2475 10.714L11.0451 9.54077C11.0031 9.29739 11.0843 9.04906 11.2621 8.87682L12.1195 8.04579L10.9346 7.87451C10.6888 7.83903 10.4763 7.68568 10.3665 7.46424L9.83661 6.39669L9.3067 7.46424C9.19657 7.68568 8.98419 7.83903 8.73842 7.87451L7.5535 8.04579Z" fill="#3DC2C2"/>
</svg>
