<svg width="26" height="25" viewBox="0 0 26 25" fill="none" xmlns="http://www.w3.org/2000/svg">
<g clip-path="url(#clip0)">
<path d="M23.5 10.3995H19.6241V3.02124C19.6241 1.89381 18.7014 0.976562 17.5673 0.976562H2.00765C0.873573 0.976562 -0.0490723 1.89381 -0.0490723 3.02124V14.3019C-0.0490723 15.4293 0.873573 16.3466 2.00765 16.3466H3.51968L4.61711 20.7098C4.68598 20.9847 4.9047 21.1972 5.18251 21.2597C5.23796 21.2721 5.2936 21.2782 5.34905 21.2782C5.57141 21.278 5.78591 21.1802 5.93095 21.0053L9.79708 16.3466H11.8212V19.2967C11.8212 20.1727 12.538 20.8855 13.4194 20.8855H18.5051L20.9302 23.8078C21.0755 23.9827 21.29 24.0805 21.5123 24.0805C21.5676 24.0805 21.6234 24.0744 21.6787 24.062C21.9565 23.9996 22.1752 23.787 22.2443 23.5123L22.9048 20.8855H23.5C24.3812 20.8855 25.0981 20.1727 25.0981 19.2967V11.9883C25.0981 11.112 24.3812 10.3995 23.5 10.3995ZM9.44138 14.8464C9.21614 14.8464 9.00279 14.9464 8.85947 15.1192L5.71837 18.9041L4.84081 15.4146C4.75697 15.0807 4.45518 14.8464 4.10888 14.8464H2.00765C1.70566 14.8464 1.46008 14.6021 1.46008 14.3019V3.02124C1.46008 2.72103 1.70566 2.4767 2.00765 2.4767H17.5673C17.8693 2.4767 18.1149 2.72103 18.1149 3.02124V14.3019C18.1149 14.6021 17.8693 14.8464 17.5673 14.8464H9.44138ZM23.589 19.2967C23.589 19.3455 23.5491 19.3852 23.5 19.3852H22.3158C21.9695 19.3852 21.6677 19.6196 21.5839 19.9534L21.1428 21.7064L19.4429 19.6579C19.2996 19.4853 19.0861 19.3852 18.861 19.3852H13.4194C13.3702 19.3852 13.3301 19.3455 13.3301 19.2967V16.3466H17.5673C18.7014 16.3466 19.6239 15.4293 19.6239 14.3019V11.8996H23.5C23.5491 11.8996 23.589 11.9393 23.589 11.9883V19.2967Z" fill="white"/>
<path d="M12.2005 12.9188C12.0804 12.9188 11.9599 12.8904 11.8494 12.8326L9.78754 11.755L7.72545 12.8326C7.47124 12.9656 7.1633 12.9434 6.93077 12.7754C6.69843 12.6077 6.58217 12.3232 6.63071 12.0418L7.02459 9.75912L5.35619 8.14264C5.15071 7.94332 5.07666 7.6452 5.16529 7.37359C5.25413 7.10218 5.4903 6.90419 5.77444 6.86319L8.07981 6.53016L9.11086 4.45325C9.23806 4.19728 9.50033 4.03516 9.78754 4.03516C10.0748 4.03516 10.337 4.19728 10.464 4.45325L11.4951 6.53016L13.8004 6.86319C14.0848 6.90419 14.321 7.10218 14.4096 7.37359C14.4984 7.6452 14.4244 7.94332 14.2187 8.14264L12.5505 9.75912L12.9442 12.0418C12.9927 12.3232 12.8765 12.6077 12.6441 12.7754C12.5127 12.8706 12.3571 12.9188 12.2005 12.9188ZM7.50443 8.12929L8.36184 8.96032C8.53969 9.13255 8.62085 9.38089 8.57883 9.62427L8.37642 10.7975L9.43644 10.2436C9.65612 10.1286 9.91877 10.1286 10.1386 10.2436L11.1985 10.7975L10.9961 9.62427C10.954 9.38089 11.0352 9.13255 11.213 8.96032L12.0705 8.12929L10.8855 7.95801C10.6398 7.92253 10.4272 7.76918 10.3175 7.54773L9.78754 6.48019L9.25763 7.54773C9.1475 7.76918 8.93511 7.92253 8.68934 7.95801L7.50443 8.12929Z" fill="white"/>
</g>
<defs>
<clipPath id="clip0">
<rect width="25.1472" height="25" fill="white"/>
</clipPath>
</defs>
</svg>
