<svg width="20" height="24" viewBox="0 0 20 24" fill="none" xmlns="http://www.w3.org/2000/svg">
<path d="M19.0491 9.9165C19.0491 16.9165 10.0491 22.9165 10.0491 22.9165C10.0491 22.9165 1.04907 16.9165 1.04907 9.9165C1.04907 7.52955 1.99728 5.24037 3.68511 3.55254C5.37294 1.86472 7.66212 0.916504 10.0491 0.916504C12.436 0.916504 14.7252 1.86472 16.413 3.55254C18.1009 5.24037 19.0491 7.52955 19.0491 9.9165Z" stroke="#3DC2C2" stroke-width="1.5" stroke-linecap="round" stroke-linejoin="round"/>
<path d="M10.0491 13.9165C12.2582 13.9165 14.0491 12.1256 14.0491 9.9165C14.0491 7.70736 12.2582 5.9165 10.0491 5.9165C7.83993 5.9165 6.04907 7.70736 6.04907 9.9165C6.04907 12.1256 7.83993 13.9165 10.0491 13.9165Z" stroke="#3DC2C2" stroke-width="1.5" stroke-linecap="round" stroke-linejoin="round"/>
</svg>
