<svg width="16" height="14" viewBox="0 0 16 14" fill="none" xmlns="http://www.w3.org/2000/svg">
<path d="M4.92497 6.28711H0.499089C0.223472 6.28711 0 6.51058 0 6.7862C0 8.28163 1.21662 9.49825 2.71205 9.49825C4.20748 9.49825 5.4241 8.28159 5.4241 6.7862C5.42406 6.51058 5.20063 6.28711 4.92497 6.28711ZM2.71205 8.50007C1.94054 8.50007 1.28645 7.98769 1.07228 7.28529H4.35182C4.13765 7.98769 3.48356 8.50007 2.71205 8.50007Z" fill="#808080"/>
<path d="M15.501 6.28711H11.075C10.7994 6.28711 10.5759 6.51058 10.5759 6.7862C10.5759 8.28163 11.7926 9.49825 13.288 9.49825C14.7834 9.49825 16.0001 8.28159 16.0001 6.7862C16.0001 6.51058 15.7766 6.28711 15.501 6.28711ZM13.288 8.50007C12.5165 8.50007 11.8624 7.98769 11.6483 7.28529H14.9278C14.7137 7.98769 14.0595 8.50007 13.288 8.50007Z" fill="#808080"/>
<path d="M9.64692 12.4455H8.49909V2.67513C8.94288 2.6221 9.45207 2.5135 9.98266 2.40007C10.5956 2.26907 11.2294 2.13359 11.7617 2.08644C12.4351 2.02679 12.6542 2.1387 12.717 2.18957C12.7341 2.20335 12.7693 2.23201 12.7826 2.3264L11.8345 5.48516C11.7552 5.74916 11.905 6.02741 12.169 6.10666C12.433 6.1858 12.7113 6.03611 12.7905 5.77211L13.2871 4.11785L13.7837 5.77211C13.8486 5.98828 14.0468 6.12782 14.2615 6.12782C14.309 6.12782 14.3573 6.121 14.4052 6.10666C14.6692 6.02741 14.819 5.74916 14.7397 5.48516L13.7818 2.2939C13.7497 1.83642 13.531 1.56403 13.3449 1.41347C12.6087 0.818074 11.2319 1.11234 9.77412 1.42397C9.31412 1.52231 8.87153 1.61674 8.49917 1.66892V1.05524C8.49917 0.779625 8.27566 0.556152 8.00008 0.556152C7.72446 0.556152 7.50099 0.779625 7.50099 1.05524V1.66892C7.12871 1.61674 6.68608 1.52231 6.22604 1.42397C4.7683 1.11234 3.39137 0.818154 2.65528 1.41347C2.46918 1.56403 2.25042 1.83642 2.21835 2.2939L1.26046 5.48516C1.18121 5.74916 1.33101 6.02741 1.59497 6.10666C1.85897 6.1858 2.13722 6.03611 2.21648 5.77211L2.71305 4.11785L3.20962 5.77211C3.27451 5.98828 3.47278 6.12782 3.68743 6.12782C3.73495 6.12782 3.78326 6.121 3.83113 6.10666C4.09513 6.02741 4.2449 5.74916 4.16564 5.48516L3.21741 2.3264C3.23075 2.23205 3.26596 2.20335 3.28297 2.18957C3.3459 2.1387 3.5649 2.02679 4.23827 2.08644C4.77058 2.13363 5.40442 2.26907 6.01734 2.40007C6.54793 2.5135 7.05712 2.6221 7.50091 2.67513V12.4455H6.35309C6.07743 12.4455 5.854 12.669 5.854 12.9445C5.854 13.2202 6.07743 13.4436 6.35309 13.4436H9.64692C9.92257 13.4436 10.146 13.2202 10.146 12.9445C10.146 12.6689 9.92261 12.4455 9.64692 12.4455Z" fill="#808080"/>
</svg>
