<svg width="16" height="16" viewBox="0 0 16 16" fill="none" xmlns="http://www.w3.org/2000/svg">
<path d="M15.5312 7.53125H14.125C13.8661 7.53125 13.6562 7.74112 13.6562 8C13.6562 8.25888 13.8661 8.46875 14.125 8.46875H15.5312C15.7901 8.46875 16 8.25888 16 8C16 7.74112 15.7901 7.53125 15.5312 7.53125Z" fill="#808080"/>
<path d="M14.9252 10.481L13.9877 9.54352C13.8047 9.36049 13.5079 9.36049 13.3248 9.54352C13.1417 9.72656 13.1417 10.0234 13.3248 10.2064L14.2623 11.1439C14.4454 11.327 14.7422 11.327 14.9252 11.1439C15.1083 10.9609 15.1083 10.6641 14.9252 10.481Z" fill="#808080"/>
<path d="M14.9252 4.85602C14.7422 4.67299 14.4454 4.67299 14.2623 4.85602L13.3248 5.79352C13.1417 5.97659 13.1417 6.27337 13.3248 6.45643C13.5079 6.63949 13.8047 6.63946 13.9877 6.45643L14.9252 5.51893C15.1083 5.33587 15.1083 5.03909 14.9252 4.85602Z" fill="#808080"/>
<path d="M10.8438 2.90625C10.1397 2.90625 9.55484 3.42641 9.45322 4.10262L9.02563 4.53022C8.28141 5.27444 7.18541 5.71875 6.09375 5.71875H3.28125C2.67016 5.71875 2.14913 6.11066 1.95563 6.65625H1.875C0.841125 6.65625 0 7.49738 0 8.53125C0 9.56512 0.841125 10.4062 1.875 10.4062H1.95563C2.09709 10.8051 2.41363 11.1217 2.8125 11.2631V13.6875C2.8125 14.4629 3.44338 15.0938 4.21878 15.0938C4.99416 15.0938 5.625 14.4629 5.625 13.6875V11.3438H6.09375C7.18538 11.3438 8.28137 11.7881 9.02563 12.5323L9.45322 12.9599C9.55484 13.6361 10.1397 14.1562 10.8438 14.1562C11.6192 14.1562 12.25 13.5254 12.25 12.75V4.3125C12.25 3.53709 11.6192 2.90625 10.8438 2.90625ZM1.875 9.46875C1.35806 9.46875 0.9375 9.04819 0.9375 8.53125C0.9375 8.01431 1.35806 7.59375 1.875 7.59375V9.46875ZM4.6875 13.6875C4.6875 13.946 4.47722 14.1562 4.21875 14.1562C3.96028 14.1562 3.75 13.946 3.75 13.6875V11.3438H4.6875V13.6875ZM5.625 10.4062H3.28125C3.02278 10.4062 2.8125 10.196 2.8125 9.9375V7.125C2.8125 6.86653 3.02278 6.65625 3.28125 6.65625H5.625V10.4062ZM9.4375 11.6358C8.64559 10.9504 7.62744 10.5246 6.55937 10.4275L6.55941 6.63497C7.62744 6.53791 8.64559 6.11206 9.4375 5.42666V11.6358ZM11.3125 12.75C11.3125 13.0085 11.1022 13.2188 10.8438 13.2188H10.8438C10.5853 13.2188 10.375 13.0085 10.375 12.75V4.3125C10.375 4.05403 10.5853 3.84375 10.8438 3.84375C11.1022 3.84375 11.3125 4.05403 11.3125 4.3125V12.75Z" fill="#808080"/>
</svg>
