<svg width="17" height="16" viewBox="0 0 17 16" fill="none" xmlns="http://www.w3.org/2000/svg">
<path d="M9.27639 15.9552C12.9655 15.5956 15.9221 13.0299 16.3429 9.82032C16.8951 5.62367 13.1459 2.05128 8.44615 2.00552V0.12291C8.44615 0.0183201 8.29588 -0.037243 8.19444 0.0281254L3.73891 2.87492C3.66378 2.92395 3.66378 3.01873 3.73891 3.06776L8.19444 5.91456C8.29588 5.97992 8.44615 5.92109 8.44615 5.81977V3.94043C11.7483 3.98619 14.3931 6.43097 14.1677 9.35294C13.9761 11.8664 11.6206 13.9059 8.73166 14.066C5.66989 14.236 3.06645 12.3337 2.60061 9.81705C2.51421 9.34967 2.04461 9.00975 1.50364 9.00975C0.831175 9.00975 0.305227 9.52943 0.410416 10.1079C1.06409 13.6934 4.8697 16.3833 9.27639 15.9552Z" fill="#808080"/>
</svg>
