<svg width="16" height="16" viewBox="0 0 16 16" fill="none" xmlns="http://www.w3.org/2000/svg">
<g clip-path="url(#clip0)">
<path d="M3.0141 3.67218L3.0141 3.67212C3.01085 3.12047 2.56304 2.67262 2.01133 2.67262C1.45964 2.67262 1.00855 3.12045 1.00855 3.67539C1.00855 4.23037 1.45968 4.67495 2.01133 4.67495C2.56301 4.67495 3.0141 4.22712 3.0141 3.67218ZM2.01133 4.01238C1.82408 4.01238 1.67113 3.85942 1.67113 3.67218C1.67113 3.48493 1.82408 3.33198 2.01133 3.33198C2.19857 3.33198 2.35153 3.48493 2.35153 3.67218C2.35153 3.85942 2.19857 4.01238 2.01133 4.01238Z" fill="#808080" stroke="#808080" stroke-width="0.02"/>
<mask id="path-2-outside-1" maskUnits="userSpaceOnUse" x="-1" y="0.709473" width="18" height="14" fill="black">
<rect fill="white" x="-1" y="0.709473" width="18" height="14"/>
<path d="M15.9839 12.1673L15.9743 11.1296C15.9775 11.1071 15.9775 11.0878 15.9775 11.0653C15.9775 10.8083 15.8072 10.5962 15.4859 10.4292V5.00907C15.4859 4.32152 14.9269 3.7657 14.2394 3.7657H14.2361H13.5582V2.96891C13.5582 2.27815 13.0056 1.70947 12.3149 1.70947H1.25622C0.562249 1.71269 0.00321285 2.27493 0 2.96891V8.76168C0 9.45245 0.568675 9.99863 1.25622 9.99863H1.92771V10.7986C1.92771 11.4894 2.48353 12.0516 3.17751 12.0549H5.80241C5.93414 12.5304 6.20402 12.9545 6.57671 13.2725C7.48273 14.0565 8.81285 14.0918 9.76064 13.3561C10.143 13.4364 10.5317 13.4781 10.9205 13.4846C10.9976 13.687 11.2225 13.9151 11.7622 14.079C12.212 14.2171 12.8064 14.291 13.4361 14.291C14.3871 14.291 16 14.079 16 13.279V13.2757L15.9839 12.1673ZM13.5582 4.40827H14.2361C14.5703 4.40506 14.8402 4.67172 14.8434 5.00586V5.00907V10.2107C14.4643 10.1271 14.0755 10.0757 13.6867 10.0629V9.18899C13.6867 9.17293 13.69 9.15365 13.69 9.13437C13.69 9.11831 13.6867 9.10546 13.6867 9.08939V8.24441C13.7124 8.18016 13.7253 8.11269 13.7221 8.04522C13.7221 7.94241 13.6867 7.80425 13.5582 7.66289V4.40827ZM13.3655 10.7055H13.3912C14.0337 10.7055 14.6538 10.7922 15.049 10.9432C15.139 10.9753 15.2225 11.0171 15.2996 11.0717C15.1197 11.2067 14.4707 11.438 13.3912 11.438C12.3181 11.438 11.6787 11.2035 11.5116 11.0717C11.5791 11.0203 11.7301 10.9368 12.0289 10.8597C12.3984 10.7569 12.8739 10.7055 13.3655 10.7055ZM13.0474 9.10546H13.0442C12.9157 9.25968 12.1606 9.51992 11.0779 9.51992C10.596 9.51992 10.1269 9.46851 9.75422 9.37855C9.58394 9.24682 9.39438 9.13759 9.19518 9.05405L9.18876 8.7649C9.70281 8.97373 10.4321 9.05727 11.0811 9.05727C11.6209 9.05727 12.4691 8.98658 13.0474 8.75847V9.10546ZM12.9703 8.08377C12.8739 8.13518 12.7165 8.19943 12.4691 8.26048C12.0707 8.35686 11.5759 8.41148 11.0747 8.41148C10.0016 8.41148 9.36225 8.17694 9.19518 8.04522C9.36546 7.91349 10.0016 7.67895 11.0747 7.67895C11.7141 7.67895 12.5333 7.78498 12.9317 7.98739C12.9382 8.01951 12.951 8.05486 12.9703 8.08377ZM1.25622 9.35285V9.35606C0.922088 9.35606 0.64257 9.09582 0.64257 8.76168V2.97212C0.645783 2.63156 0.918875 2.35847 1.25622 2.35526H12.3149C12.6522 2.35526 12.9157 2.63799 12.9157 2.97212V7.29341C12.4337 7.13277 11.7815 7.03638 11.0715 7.03638C10.4675 7.03638 9.60321 7.12313 9.0506 7.3898C9.88916 6.14 9.55502 4.45004 8.30522 3.61148C7.05542 2.77293 5.36546 3.10706 4.52691 4.35686C3.68835 5.60666 4.02249 7.29662 5.27229 8.13518C6.2747 8.80666 7.59839 8.73919 8.52691 7.96811C8.52369 7.99381 8.52048 8.01951 8.52048 8.04522C8.52048 8.07092 8.52369 8.09341 8.52691 8.1159L8.54618 8.87735C8.44016 8.86128 8.33092 8.85164 8.22169 8.84843C7.6755 8.84843 7.14217 9.02514 6.70201 9.35285H1.25622ZM8.8739 5.86369C8.8739 7.0171 7.93896 7.95204 6.78554 7.95204C5.63213 7.95204 4.69719 7.0171 4.69719 5.86369C4.69719 4.71028 5.63213 3.77534 6.78554 3.77534C7.93896 3.77855 8.8739 4.71349 8.8739 5.86369ZM5.70924 11.3673C5.70924 11.3802 5.70924 11.3802 5.70924 11.4123H3.17751C2.84016 11.4091 2.57028 11.136 2.57028 10.7986V9.99863H6.10763C5.8506 10.4067 5.70924 10.8822 5.70924 11.3673ZM10.0112 11.9135C9.71245 12.903 8.66827 13.4589 7.67871 13.1601C6.68916 12.8613 6.13333 11.8171 6.43213 10.8275C6.73092 9.83799 7.7751 9.28217 8.76466 9.58096C8.76787 9.58096 8.7743 9.58417 8.77751 9.58417C9.02169 9.65807 9.24659 9.78337 9.43614 9.95044C9.751 10.2203 9.96626 10.5866 10.0498 10.9914V10.9946C10.1173 11.2998 10.1012 11.6147 10.0112 11.9135ZM10.2908 12.797C10.3871 12.6589 10.4675 12.5111 10.5317 12.3601C10.641 12.3697 10.7534 12.3729 10.8691 12.3761L10.8755 12.842C10.6731 12.8356 10.4771 12.8195 10.2908 12.797ZM10.7309 11.2613C10.7695 11.2645 10.8112 11.2645 10.853 11.2645L10.8594 11.7304C10.808 11.7304 10.7598 11.7271 10.7084 11.7239C10.7245 11.6051 10.7341 11.4894 10.7341 11.3705C10.7341 11.3352 10.7341 11.2998 10.7309 11.2613ZM11.0426 10.6283C10.898 10.6283 10.7534 10.6219 10.6185 10.6123C10.5671 10.4452 10.4964 10.2846 10.4096 10.1336C10.6249 10.1528 10.8498 10.1625 11.0779 10.1625C11.6819 10.1625 12.2731 10.0886 12.739 9.95044C12.8514 9.91831 12.951 9.87976 13.0474 9.8412V10.0629C12.5976 10.0854 12.151 10.1496 11.7976 10.2492C11.4538 10.3456 11.2 10.4741 11.0426 10.6283ZM11.502 11.785C12.0193 11.9938 12.755 12.0773 13.3912 12.0773C13.9952 12.0773 14.5767 12.0067 15.0297 11.8749C15.1325 11.846 15.2353 11.8107 15.3349 11.7689L15.3382 12.1095C15.3349 12.1191 15.3349 12.1288 15.3349 12.1416C15.2289 12.2669 14.5639 12.54 13.3912 12.54C12.3149 12.54 11.6755 12.3055 11.5084 12.1737L11.502 11.785ZM13.4329 13.6516C12.9349 13.6516 12.4562 13.6002 12.0803 13.5039C11.7141 13.4107 11.5631 13.3047 11.5245 13.2629L11.5181 12.8998C12.0386 13.1055 12.7679 13.1858 13.388 13.1858C13.9663 13.1858 14.7855 13.1087 15.3446 12.8741L15.3478 13.2565C15.245 13.3818 14.5896 13.6516 13.4329 13.6516Z"/>
</mask>
<path d="M15.9839 12.1673L15.9743 11.1296C15.9775 11.1071 15.9775 11.0878 15.9775 11.0653C15.9775 10.8083 15.8072 10.5962 15.4859 10.4292V5.00907C15.4859 4.32152 14.9269 3.7657 14.2394 3.7657H14.2361H13.5582V2.96891C13.5582 2.27815 13.0056 1.70947 12.3149 1.70947H1.25622C0.562249 1.71269 0.00321285 2.27493 0 2.96891V8.76168C0 9.45245 0.568675 9.99863 1.25622 9.99863H1.92771V10.7986C1.92771 11.4894 2.48353 12.0516 3.17751 12.0549H5.80241C5.93414 12.5304 6.20402 12.9545 6.57671 13.2725C7.48273 14.0565 8.81285 14.0918 9.76064 13.3561C10.143 13.4364 10.5317 13.4781 10.9205 13.4846C10.9976 13.687 11.2225 13.9151 11.7622 14.079C12.212 14.2171 12.8064 14.291 13.4361 14.291C14.3871 14.291 16 14.079 16 13.279V13.2757L15.9839 12.1673ZM13.5582 4.40827H14.2361C14.5703 4.40506 14.8402 4.67172 14.8434 5.00586V5.00907V10.2107C14.4643 10.1271 14.0755 10.0757 13.6867 10.0629V9.18899C13.6867 9.17293 13.69 9.15365 13.69 9.13437C13.69 9.11831 13.6867 9.10546 13.6867 9.08939V8.24441C13.7124 8.18016 13.7253 8.11269 13.7221 8.04522C13.7221 7.94241 13.6867 7.80425 13.5582 7.66289V4.40827ZM13.3655 10.7055H13.3912C14.0337 10.7055 14.6538 10.7922 15.049 10.9432C15.139 10.9753 15.2225 11.0171 15.2996 11.0717C15.1197 11.2067 14.4707 11.438 13.3912 11.438C12.3181 11.438 11.6787 11.2035 11.5116 11.0717C11.5791 11.0203 11.7301 10.9368 12.0289 10.8597C12.3984 10.7569 12.8739 10.7055 13.3655 10.7055ZM13.0474 9.10546H13.0442C12.9157 9.25968 12.1606 9.51992 11.0779 9.51992C10.596 9.51992 10.1269 9.46851 9.75422 9.37855C9.58394 9.24682 9.39438 9.13759 9.19518 9.05405L9.18876 8.7649C9.70281 8.97373 10.4321 9.05727 11.0811 9.05727C11.6209 9.05727 12.4691 8.98658 13.0474 8.75847V9.10546ZM12.9703 8.08377C12.8739 8.13518 12.7165 8.19943 12.4691 8.26048C12.0707 8.35686 11.5759 8.41148 11.0747 8.41148C10.0016 8.41148 9.36225 8.17694 9.19518 8.04522C9.36546 7.91349 10.0016 7.67895 11.0747 7.67895C11.7141 7.67895 12.5333 7.78498 12.9317 7.98739C12.9382 8.01951 12.951 8.05486 12.9703 8.08377ZM1.25622 9.35285V9.35606C0.922088 9.35606 0.64257 9.09582 0.64257 8.76168V2.97212C0.645783 2.63156 0.918875 2.35847 1.25622 2.35526H12.3149C12.6522 2.35526 12.9157 2.63799 12.9157 2.97212V7.29341C12.4337 7.13277 11.7815 7.03638 11.0715 7.03638C10.4675 7.03638 9.60321 7.12313 9.0506 7.3898C9.88916 6.14 9.55502 4.45004 8.30522 3.61148C7.05542 2.77293 5.36546 3.10706 4.52691 4.35686C3.68835 5.60666 4.02249 7.29662 5.27229 8.13518C6.2747 8.80666 7.59839 8.73919 8.52691 7.96811C8.52369 7.99381 8.52048 8.01951 8.52048 8.04522C8.52048 8.07092 8.52369 8.09341 8.52691 8.1159L8.54618 8.87735C8.44016 8.86128 8.33092 8.85164 8.22169 8.84843C7.6755 8.84843 7.14217 9.02514 6.70201 9.35285H1.25622ZM8.8739 5.86369C8.8739 7.0171 7.93896 7.95204 6.78554 7.95204C5.63213 7.95204 4.69719 7.0171 4.69719 5.86369C4.69719 4.71028 5.63213 3.77534 6.78554 3.77534C7.93896 3.77855 8.8739 4.71349 8.8739 5.86369ZM5.70924 11.3673C5.70924 11.3802 5.70924 11.3802 5.70924 11.4123H3.17751C2.84016 11.4091 2.57028 11.136 2.57028 10.7986V9.99863H6.10763C5.8506 10.4067 5.70924 10.8822 5.70924 11.3673ZM10.0112 11.9135C9.71245 12.903 8.66827 13.4589 7.67871 13.1601C6.68916 12.8613 6.13333 11.8171 6.43213 10.8275C6.73092 9.83799 7.7751 9.28217 8.76466 9.58096C8.76787 9.58096 8.7743 9.58417 8.77751 9.58417C9.02169 9.65807 9.24659 9.78337 9.43614 9.95044C9.751 10.2203 9.96626 10.5866 10.0498 10.9914V10.9946C10.1173 11.2998 10.1012 11.6147 10.0112 11.9135ZM10.2908 12.797C10.3871 12.6589 10.4675 12.5111 10.5317 12.3601C10.641 12.3697 10.7534 12.3729 10.8691 12.3761L10.8755 12.842C10.6731 12.8356 10.4771 12.8195 10.2908 12.797ZM10.7309 11.2613C10.7695 11.2645 10.8112 11.2645 10.853 11.2645L10.8594 11.7304C10.808 11.7304 10.7598 11.7271 10.7084 11.7239C10.7245 11.6051 10.7341 11.4894 10.7341 11.3705C10.7341 11.3352 10.7341 11.2998 10.7309 11.2613ZM11.0426 10.6283C10.898 10.6283 10.7534 10.6219 10.6185 10.6123C10.5671 10.4452 10.4964 10.2846 10.4096 10.1336C10.6249 10.1528 10.8498 10.1625 11.0779 10.1625C11.6819 10.1625 12.2731 10.0886 12.739 9.95044C12.8514 9.91831 12.951 9.87976 13.0474 9.8412V10.0629C12.5976 10.0854 12.151 10.1496 11.7976 10.2492C11.4538 10.3456 11.2 10.4741 11.0426 10.6283ZM11.502 11.785C12.0193 11.9938 12.755 12.0773 13.3912 12.0773C13.9952 12.0773 14.5767 12.0067 15.0297 11.8749C15.1325 11.846 15.2353 11.8107 15.3349 11.7689L15.3382 12.1095C15.3349 12.1191 15.3349 12.1288 15.3349 12.1416C15.2289 12.2669 14.5639 12.54 13.3912 12.54C12.3149 12.54 11.6755 12.3055 11.5084 12.1737L11.502 11.785ZM13.4329 13.6516C12.9349 13.6516 12.4562 13.6002 12.0803 13.5039C11.7141 13.4107 11.5631 13.3047 11.5245 13.2629L11.5181 12.8998C12.0386 13.1055 12.7679 13.1858 13.388 13.1858C13.9663 13.1858 14.7855 13.1087 15.3446 12.8741L15.3478 13.2565C15.245 13.3818 14.5896 13.6516 13.4329 13.6516Z" fill="#808080"/>
<path d="M15.9839 12.1673L15.9743 11.1296C15.9775 11.1071 15.9775 11.0878 15.9775 11.0653C15.9775 10.8083 15.8072 10.5962 15.4859 10.4292V5.00907C15.4859 4.32152 14.9269 3.7657 14.2394 3.7657H14.2361H13.5582V2.96891C13.5582 2.27815 13.0056 1.70947 12.3149 1.70947H1.25622C0.562249 1.71269 0.00321285 2.27493 0 2.96891V8.76168C0 9.45245 0.568675 9.99863 1.25622 9.99863H1.92771V10.7986C1.92771 11.4894 2.48353 12.0516 3.17751 12.0549H5.80241C5.93414 12.5304 6.20402 12.9545 6.57671 13.2725C7.48273 14.0565 8.81285 14.0918 9.76064 13.3561C10.143 13.4364 10.5317 13.4781 10.9205 13.4846C10.9976 13.687 11.2225 13.9151 11.7622 14.079C12.212 14.2171 12.8064 14.291 13.4361 14.291C14.3871 14.291 16 14.079 16 13.279V13.2757L15.9839 12.1673ZM13.5582 4.40827H14.2361C14.5703 4.40506 14.8402 4.67172 14.8434 5.00586V5.00907V10.2107C14.4643 10.1271 14.0755 10.0757 13.6867 10.0629V9.18899C13.6867 9.17293 13.69 9.15365 13.69 9.13437C13.69 9.11831 13.6867 9.10546 13.6867 9.08939V8.24441C13.7124 8.18016 13.7253 8.11269 13.7221 8.04522C13.7221 7.94241 13.6867 7.80425 13.5582 7.66289V4.40827ZM13.3655 10.7055H13.3912C14.0337 10.7055 14.6538 10.7922 15.049 10.9432C15.139 10.9753 15.2225 11.0171 15.2996 11.0717C15.1197 11.2067 14.4707 11.438 13.3912 11.438C12.3181 11.438 11.6787 11.2035 11.5116 11.0717C11.5791 11.0203 11.7301 10.9368 12.0289 10.8597C12.3984 10.7569 12.8739 10.7055 13.3655 10.7055ZM13.0474 9.10546H13.0442C12.9157 9.25968 12.1606 9.51992 11.0779 9.51992C10.596 9.51992 10.1269 9.46851 9.75422 9.37855C9.58394 9.24682 9.39438 9.13759 9.19518 9.05405L9.18876 8.7649C9.70281 8.97373 10.4321 9.05727 11.0811 9.05727C11.6209 9.05727 12.4691 8.98658 13.0474 8.75847V9.10546ZM12.9703 8.08377C12.8739 8.13518 12.7165 8.19943 12.4691 8.26048C12.0707 8.35686 11.5759 8.41148 11.0747 8.41148C10.0016 8.41148 9.36225 8.17694 9.19518 8.04522C9.36546 7.91349 10.0016 7.67895 11.0747 7.67895C11.7141 7.67895 12.5333 7.78498 12.9317 7.98739C12.9382 8.01951 12.951 8.05486 12.9703 8.08377ZM1.25622 9.35285V9.35606C0.922088 9.35606 0.64257 9.09582 0.64257 8.76168V2.97212C0.645783 2.63156 0.918875 2.35847 1.25622 2.35526H12.3149C12.6522 2.35526 12.9157 2.63799 12.9157 2.97212V7.29341C12.4337 7.13277 11.7815 7.03638 11.0715 7.03638C10.4675 7.03638 9.60321 7.12313 9.0506 7.3898C9.88916 6.14 9.55502 4.45004 8.30522 3.61148C7.05542 2.77293 5.36546 3.10706 4.52691 4.35686C3.68835 5.60666 4.02249 7.29662 5.27229 8.13518C6.2747 8.80666 7.59839 8.73919 8.52691 7.96811C8.52369 7.99381 8.52048 8.01951 8.52048 8.04522C8.52048 8.07092 8.52369 8.09341 8.52691 8.1159L8.54618 8.87735C8.44016 8.86128 8.33092 8.85164 8.22169 8.84843C7.6755 8.84843 7.14217 9.02514 6.70201 9.35285H1.25622ZM8.8739 5.86369C8.8739 7.0171 7.93896 7.95204 6.78554 7.95204C5.63213 7.95204 4.69719 7.0171 4.69719 5.86369C4.69719 4.71028 5.63213 3.77534 6.78554 3.77534C7.93896 3.77855 8.8739 4.71349 8.8739 5.86369ZM5.70924 11.3673C5.70924 11.3802 5.70924 11.3802 5.70924 11.4123H3.17751C2.84016 11.4091 2.57028 11.136 2.57028 10.7986V9.99863H6.10763C5.8506 10.4067 5.70924 10.8822 5.70924 11.3673ZM10.0112 11.9135C9.71245 12.903 8.66827 13.4589 7.67871 13.1601C6.68916 12.8613 6.13333 11.8171 6.43213 10.8275C6.73092 9.83799 7.7751 9.28217 8.76466 9.58096C8.76787 9.58096 8.7743 9.58417 8.77751 9.58417C9.02169 9.65807 9.24659 9.78337 9.43614 9.95044C9.751 10.2203 9.96626 10.5866 10.0498 10.9914V10.9946C10.1173 11.2998 10.1012 11.6147 10.0112 11.9135ZM10.2908 12.797C10.3871 12.6589 10.4675 12.5111 10.5317 12.3601C10.641 12.3697 10.7534 12.3729 10.8691 12.3761L10.8755 12.842C10.6731 12.8356 10.4771 12.8195 10.2908 12.797ZM10.7309 11.2613C10.7695 11.2645 10.8112 11.2645 10.853 11.2645L10.8594 11.7304C10.808 11.7304 10.7598 11.7271 10.7084 11.7239C10.7245 11.6051 10.7341 11.4894 10.7341 11.3705C10.7341 11.3352 10.7341 11.2998 10.7309 11.2613ZM11.0426 10.6283C10.898 10.6283 10.7534 10.6219 10.6185 10.6123C10.5671 10.4452 10.4964 10.2846 10.4096 10.1336C10.6249 10.1528 10.8498 10.1625 11.0779 10.1625C11.6819 10.1625 12.2731 10.0886 12.739 9.95044C12.8514 9.91831 12.951 9.87976 13.0474 9.8412V10.0629C12.5976 10.0854 12.151 10.1496 11.7976 10.2492C11.4538 10.3456 11.2 10.4741 11.0426 10.6283ZM11.502 11.785C12.0193 11.9938 12.755 12.0773 13.3912 12.0773C13.9952 12.0773 14.5767 12.0067 15.0297 11.8749C15.1325 11.846 15.2353 11.8107 15.3349 11.7689L15.3382 12.1095C15.3349 12.1191 15.3349 12.1288 15.3349 12.1416C15.2289 12.2669 14.5639 12.54 13.3912 12.54C12.3149 12.54 11.6755 12.3055 11.5084 12.1737L11.502 11.785ZM13.4329 13.6516C12.9349 13.6516 12.4562 13.6002 12.0803 13.5039C11.7141 13.4107 11.5631 13.3047 11.5245 13.2629L11.5181 12.8998C12.0386 13.1055 12.7679 13.1858 13.388 13.1858C13.9663 13.1858 14.7855 13.1087 15.3446 12.8741L15.3478 13.2565C15.245 13.3818 14.5896 13.6516 13.4329 13.6516Z" stroke="#808080" stroke-width="0.04" mask="url(#path-2-outside-1)"/>
<path d="M8.22159 9.92115C7.42249 9.92115 6.77223 10.5714 6.77223 11.3705C6.77223 12.1696 7.42249 12.8199 8.22159 12.8199C9.02068 12.8199 9.67094 12.1696 9.67094 11.3705C9.67094 10.5714 9.02068 9.92115 8.22159 9.92115ZM8.22159 12.1573C7.78695 12.1573 7.4348 11.8051 7.4348 11.3705C7.4348 10.9359 7.78695 10.5837 8.22159 10.5837C8.65622 10.5837 9.00837 10.9359 9.00837 11.3705C9.00837 11.8051 8.65622 12.1573 8.22159 12.1573Z" fill="#808080" stroke="#808080" stroke-width="0.02"/>
</g>
<defs>
<clipPath id="clip0">
<rect width="16" height="16" fill="white"/>
</clipPath>
</defs>
</svg>
