<svg width="17" height="16" viewBox="0 0 17 16" fill="none" xmlns="http://www.w3.org/2000/svg">
<path d="M15.8096 0.645437C15.3936 0.22925 14.8376 0 14.2441 0C13.6508 0 13.0947 0.22925 12.6787 0.645437L9.54755 3.77612L2.87565 2.83134C2.68729 2.80434 2.49771 2.868 2.36351 3.00237L0.651098 4.71469C0.507462 4.85831 0.445613 5.06459 0.486491 5.26363C0.527401 5.46266 0.665599 5.62784 0.854364 5.70319L5.77591 7.66831L3.31784 10.5673L1.45816 10.8925C1.23596 10.9314 1.05404 11.0907 0.985937 11.3057C0.917838 11.5206 0.975249 11.7557 1.13482 11.915L4.55972 15.3397C4.71908 15.4992 4.95419 15.5562 5.16914 15.4885C5.38432 15.4207 5.54367 15.2385 5.58233 15.0163L5.90729 13.1568L8.80474 10.7005L10.7511 15.6179C10.8258 15.8073 10.9912 15.946 11.1905 15.9873C11.2312 15.9958 11.2722 16 11.3129 16C11.4715 16 11.6256 15.9374 11.74 15.823L13.4525 14.1107C13.5869 13.9763 13.6503 13.7867 13.6237 13.5986L12.679 6.92841L15.8285 3.79772C15.8312 3.79509 15.8338 3.79247 15.8364 3.78966C16.6969 2.90184 16.6852 1.52053 15.8096 0.645437ZM14.9719 2.94516L11.6123 6.28478C11.4774 6.41916 11.4135 6.60931 11.4401 6.79806L12.3847 13.4694L11.5364 14.3177L9.61846 9.47247C9.54674 9.29116 9.39223 9.15559 9.20324 9.10847C9.15449 9.09619 9.10533 9.09034 9.05639 9.09034C8.91475 9.09034 8.77596 9.14009 8.66573 9.23397L4.959 12.3766C4.85121 12.4678 4.77889 12.5941 4.75452 12.7333L4.59194 13.6626L2.81199 11.8828L3.74134 11.7203C3.88035 11.6959 4.00668 11.6236 4.09812 11.5158L7.24096 7.80912C7.36669 7.66087 7.41341 7.46122 7.36647 7.27247C7.31953 7.08372 7.18455 6.92922 7.00404 6.85709L2.15444 4.92078L3.005 4.07028L9.67669 5.01506C9.86504 5.04166 10.0546 4.97841 10.1888 4.84403L13.5333 1.49997C13.7211 1.31222 13.9735 1.20869 14.2441 1.20869C14.5148 1.20869 14.7673 1.31222 14.9553 1.50019C15.3575 1.90247 15.3646 2.53622 14.9719 2.94516Z" fill="#808080"/>
<path d="M15.8096 0.645437C15.3936 0.22925 14.8376 0 14.2441 0C13.6508 0 13.0947 0.22925 12.6787 0.645437L9.54755 3.77612L2.87565 2.83134C2.68729 2.80434 2.49771 2.868 2.36351 3.00237L0.651098 4.71469C0.507462 4.85831 0.445613 5.06459 0.486491 5.26363C0.527401 5.46266 0.665599 5.62784 0.854364 5.70319L5.77591 7.66831L3.31784 10.5673L1.45816 10.8925C1.23596 10.9314 1.05404 11.0907 0.985937 11.3057C0.917838 11.5206 0.975249 11.7557 1.13482 11.915L4.55972 15.3397C4.71908 15.4992 4.95419 15.5562 5.16914 15.4885C5.38432 15.4207 5.54367 15.2385 5.58233 15.0163L5.90729 13.1568L8.80474 10.7005L10.7511 15.6179C10.8258 15.8073 10.9912 15.946 11.1905 15.9873C11.2312 15.9958 11.2722 16 11.3129 16C11.4715 16 11.6256 15.9374 11.74 15.823L13.4525 14.1107C13.5869 13.9763 13.6503 13.7867 13.6237 13.5986L12.679 6.92841L15.8285 3.79772C15.8312 3.79509 15.8338 3.79247 15.8364 3.78966C16.6969 2.90184 16.6852 1.52053 15.8096 0.645437ZM14.9719 2.94516L11.6123 6.28478C11.4774 6.41916 11.4135 6.60931 11.4401 6.79806L12.3847 13.4694L11.5364 14.3177L9.61846 9.47247C9.54674 9.29116 9.39223 9.15559 9.20324 9.10847C9.15449 9.09619 9.10533 9.09034 9.05639 9.09034C8.91475 9.09034 8.77596 9.14009 8.66573 9.23397L4.959 12.3766C4.85121 12.4678 4.77889 12.5941 4.75452 12.7333L4.59194 13.6626L2.81199 11.8828L3.74134 11.7203C3.88035 11.6959 4.00668 11.6236 4.09812 11.5158L7.24096 7.80912C7.36669 7.66087 7.41341 7.46122 7.36647 7.27247C7.31953 7.08372 7.18455 6.92922 7.00404 6.85709L2.15444 4.92078L3.005 4.07028L9.67669 5.01506C9.86504 5.04166 10.0546 4.97841 10.1888 4.84403L13.5333 1.49997C13.7211 1.31222 13.9735 1.20869 14.2441 1.20869C14.5148 1.20869 14.7673 1.31222 14.9553 1.50019C15.3575 1.90247 15.3646 2.53622 14.9719 2.94516Z" stroke="#808080"/>
</svg>
